<?xml version="1.0" encoding="UTF-8" standalone="no"?>
<!-- Created with Inkscape (http://www.inkscape.org/) -->

<svg
   xmlns:dc="http://purl.org/dc/elements/1.1/"
   xmlns:cc="http://creativecommons.org/ns#"
   xmlns:rdf="http://www.w3.org/1999/02/22-rdf-syntax-ns#"
   xmlns:svg="http://www.w3.org/2000/svg"
   xmlns="http://www.w3.org/2000/svg"
   xmlns:sodipodi="http://sodipodi.sourceforge.net/DTD/sodipodi-0.dtd"
   xmlns:inkscape="http://www.inkscape.org/namespaces/inkscape"
   id="svg3976"
   version="1.1"
   inkscape:version="0.48.1 r9760"
   width="765"
   height="990"
   xml:space="preserve"
   sodipodi:docname="Logotipo Vectores para imprenta.svg"><metadata
     id="metadata3982"><rdf:RDF><cc:Work
         rdf:about=""><dc:format>image/svg+xml</dc:format><dc:type
           rdf:resource="http://purl.org/dc/dcmitype/StillImage" /><dc:title></dc:title></cc:Work></rdf:RDF></metadata><defs
     id="defs3980"><clipPath
       clipPathUnits="userSpaceOnUse"
       id="clipPath3990"><path
         d="M 0,792 612,792 612,0 0,0 0,792 z"
         id="path3992" /></clipPath></defs><sodipodi:namedview
     pagecolor="#ffffff"
     bordercolor="#666666"
     borderopacity="1"
     objecttolerance="10"
     gridtolerance="10"
     guidetolerance="10"
     inkscape:pageopacity="0"
     inkscape:pageshadow="2"
     inkscape:window-width="1026"
     inkscape:window-height="579"
     id="namedview3978"
     showgrid="false"
     inkscape:zoom="1"
     inkscape:cx="329.91008"
     inkscape:cy="477.48688"
     inkscape:window-x="75"
     inkscape:window-y="369"
     inkscape:window-maximized="0"
     inkscape:current-layer="g3994" /><g
     id="g3984"
     inkscape:groupmode="layer"
     inkscape:label="Logotipo Vectores para imprenta Illustrator 2"
     transform="matrix(1.25,0,0,-1.25,0,990)"><g
       id="g3986"><g
         id="g3988"
         clip-path="url(#clipPath3990)"><g
           id="g3994"
           transform="translate(498.877,304.5273)"><path
             d="M 0,0 C 22.888,3.229 31.91,31.643 26.15,54.743 22.535,69.237 12.613,80.497 0.039,86.325 c 0,0 -4.832,-20.524 -17.561,-43.421 C -31.455,17.844 -16.337,-2.306 0,0 m 38.206,69.855 c -2.027,3.532 -2.334,7.387 -0.683,8.61 1.651,1.223 4.634,-0.648 6.663,-4.179 2.029,-3.531 2.335,-7.386 0.683,-8.609 -1.651,-1.224 -4.635,0.647 -6.663,4.178 M 4.082,-1.302 C 3.124,-1.369 2.171,-1.409 1.225,-1.428 23.793,3.564 39.91,24.452 38.25,48.203 37.208,63.105 29.391,75.916 18.019,83.839 28.35,79.633 36.677,71.338 40.842,60.83 c 1.525,-3.846 3.959,-6.46 5.461,-6.072 2.104,0.541 2.097,4.721 1.902,7.515 -0.223,3.194 -0.804,6.276 -1.701,9.211 4.301,-6.511 6.804,-14.314 6.804,-22.701 0,-3.009 -0.323,-5.941 -0.933,-8.768 C 48.545,20.476 26.953,0.297 4.082,-1.302 m -282.582,48.528 7.83,0 -3.577,10.783 z m 8.324,-1.71 -8.977,0 -2.246,-5.646 c -0.389,-1.095 -0.583,-1.786 -0.583,-2.073 0,-0.462 0.236,-0.789 0.709,-0.982 0.472,-0.19 1.317,-0.317 2.532,-0.374 l -0.086,-1.119 c -0.712,0 -1.509,0.01 -2.392,0.03 -0.884,0.019 -1.777,0.029 -2.68,0.029 -0.711,0 -1.447,-0.01 -2.205,-0.029 -0.759,-0.02 -1.494,-0.03 -2.206,-0.03 l -0.057,1.06 c 0.746,0.057 1.357,0.148 1.834,0.271 0.477,0.124 0.893,0.343 1.247,0.657 0.353,0.313 0.687,0.76 1.002,1.342 0.315,0.58 0.682,1.356 1.103,2.327 l 8.231,19.537 0.589,1.515 0.529,1.4 2.046,0.176 c 0.211,-0.92 0.436,-1.765 0.677,-2.532 0.241,-0.766 0.466,-1.468 0.677,-2.1 l 6.485,-18.762 c 0.289,-0.838 0.549,-1.496 0.78,-1.972 0.231,-0.475 0.501,-0.833 0.81,-1.071 0.308,-0.238 0.699,-0.405 1.17,-0.5 0.473,-0.095 1.084,-0.172 1.836,-0.229 l -0.087,-1.119 c -0.808,0 -1.698,0.01 -2.669,0.03 -0.971,0.019 -2.016,0.029 -3.131,0.029 -1.078,0 -2.032,-0.01 -2.859,-0.029 -0.827,-0.02 -1.645,-0.03 -2.454,-0.03 l -0.087,1.06 c 1.08,0.076 1.851,0.193 2.314,0.353 0.462,0.161 0.693,0.484 0.693,0.975 -0.031,0.222 -0.092,0.468 -0.181,0.742 -0.089,0.275 -0.171,0.591 -0.247,0.95 z m 20.345,-4.987 c 0,-0.554 0.019,-1.068 0.058,-1.538 0.038,-0.47 0.18,-0.876 0.429,-1.221 0.248,-0.345 0.651,-0.614 1.204,-0.805 0.555,-0.193 1.214,-0.289 1.978,-0.289 1.586,0 3.139,0.289 4.657,0.863 1.519,0.576 2.823,1.414 3.911,2.516 1.09,1.103 1.936,2.45 2.537,4.04 0.603,1.592 0.904,3.383 0.904,5.377 0,2.032 -0.311,3.809 -0.932,5.334 -0.621,1.523 -1.477,2.794 -2.565,3.809 -1.089,1.016 -2.379,1.778 -3.87,2.285 -1.49,0.509 -2.97,0.762 -4.441,0.762 -0.478,0 -0.941,-0.037 -1.391,-0.114 -0.449,-0.077 -0.864,-0.183 -1.246,-0.317 -0.382,-0.133 -0.683,-0.278 -0.903,-0.431 -0.22,-0.154 -0.33,-0.317 -0.33,-0.489 z m -7.722,22.428 c 0.689,0 1.528,-0.01 2.513,-0.028 0.985,-0.019 2.034,-0.029 3.144,-0.029 0.976,0 2,0.049 3.073,0.148 1.071,0.098 2.105,0.147 3.1,0.147 2.202,0 4.26,-0.22 6.174,-0.661 1.914,-0.441 3.613,-1.169 5.097,-2.184 1.483,-1.016 2.67,-2.343 3.56,-3.982 0.891,-1.639 1.335,-3.645 1.335,-6.022 0,-2.451 -0.44,-4.625 -1.321,-6.523 -0.882,-1.897 -2.069,-3.499 -3.564,-4.801 -1.496,-1.303 -3.234,-2.294 -5.217,-2.975 -1.984,-0.68 -4.144,-1.02 -6.482,-1.02 -0.977,0 -2.021,0.059 -3.132,0.176 -1.112,0.119 -2.157,0.178 -3.133,0.178 -0.518,0 -0.992,-0.005 -1.423,-0.016 -0.431,-0.01 -0.867,-0.013 -1.308,-0.013 -0.441,0 -0.862,-0.005 -1.265,-0.015 l -1.063,-0.015 -0.087,1.06 c 0.807,0.058 1.459,0.143 1.958,0.259 0.499,0.115 0.883,0.306 1.153,0.574 0.268,0.269 0.446,0.629 0.532,1.078 0.086,0.449 0.13,1.039 0.13,1.767 l 0,19.108 c 0,0.517 -0.038,0.937 -0.115,1.264 -0.076,0.325 -0.243,0.588 -0.501,0.79 -0.256,0.201 -0.643,0.344 -1.157,0.431 -0.514,0.086 -1.201,0.149 -2.058,0.187 z m 35.09789,-15.731 7.829,0 -3.577,10.783 z m 8.323,-1.71 -8.977,0 -2.246,-5.646 c -0.389,-1.095 -0.583,-1.786 -0.583,-2.073 0,-0.462 0.236,-0.789 0.709,-0.982 0.472,-0.19 1.317,-0.317 2.533,-0.374 l -0.087,-1.119 c -0.711,0 -1.509,0.01 -2.393,0.03 -0.882,0.019 -1.777,0.029 -2.679,0.029 -0.711,0 -1.447,-0.01 -2.205,-0.029 -0.759,-0.02 -1.493,-0.03 -2.204,-0.03 l -0.058,1.06 c 0.745,0.057 1.356,0.148 1.833,0.271 0.478,0.124 0.894,0.343 1.247,0.657 0.354,0.313 0.688,0.76 1.003,1.342 0.314,0.58 0.683,1.356 1.103,2.327 l 8.23,19.537 0.589,1.515 0.53,1.4 2.045,0.176 c 0.211,-0.92 0.437,-1.765 0.677,-2.532 0.24,-0.766 0.467,-1.468 0.678,-2.1 l 6.484,-18.762 c 0.289,-0.838 0.549,-1.496 0.78,-1.972 0.231,-0.475 0.501,-0.833 0.81,-1.071 0.308,-0.238 0.699,-0.405 1.171,-0.5 0.472,-0.095 1.085,-0.172 1.836,-0.229 l -0.087,-1.119 c -0.809,0 -1.699,0.01 -2.67,0.03 -0.972,0.019 -2.016,0.029 -3.131,0.029 -1.078,0 -2.031,-0.01 -2.859,-0.029 -0.827,-0.02 -1.645,-0.03 -2.454,-0.03 l -0.086,1.06 c 1.08,0.076 1.851,0.193 2.313,0.353 0.462,0.161 0.693,0.484 0.693,0.975 -0.031,0.222 -0.091,0.468 -0.18,0.742 -0.09,0.275 -0.173,0.591 -0.247,0.95 z m 20.79411,3.054 c 0.441,-0.133 0.844,-0.234 1.209,-0.301 0.365,-0.068 0.855,-0.101 1.47,-0.101 0.557,0 1.209,0.115 1.958,0.346 0.75,0.23 1.446,0.609 2.088,1.135 0.645,0.528 1.177,1.243 1.599,2.144 0.423,0.902 0.635,2.033 0.635,3.395 0,2.206 -0.601,3.827 -1.801,4.862 -1.2,1.036 -2.741,1.554 -4.622,1.554 -0.558,0 -0.99,-0.039 -1.297,-0.116 -0.308,-0.076 -0.562,-0.195 -0.764,-0.359 -0.201,-0.162 -0.331,-0.379 -0.389,-0.647 -0.058,-0.269 -0.086,-0.604 -0.086,-1.007 z m 0,-9.509 c 0,-0.461 0.028,-0.849 0.085,-1.165 0.058,-0.318 0.231,-0.583 0.517,-0.793 0.287,-0.211 0.723,-0.369 1.306,-0.474 0.583,-0.107 1.401,-0.168 2.453,-0.188 l -0.057,-1.119 c -1.032,0 -2.113,0.01 -3.241,0.03 -1.128,0.019 -2.284,0.029 -3.47,0.029 -0.497,0 -0.966,-0.005 -1.405,-0.016 -0.439,-0.01 -0.879,-0.013 -1.318,-0.013 -0.421,0 -0.823,-0.005 -1.205,-0.015 l -0.975,-0.015 -0.057,1.06 c 0.746,0.058 1.345,0.149 1.795,0.274 0.45,0.123 0.801,0.315 1.05,0.574 0.248,0.258 0.416,0.614 0.503,1.063 0.086,0.449 0.129,1.039 0.129,1.767 l 0,19.223 c 0,0.459 -0.038,0.842 -0.115,1.149 -0.078,0.306 -0.236,0.56 -0.475,0.761 -0.24,0.202 -0.6,0.35 -1.078,0.446 -0.48,0.095 -1.122,0.163 -1.927,0.201 l 0.057,1.089 1.079,-0.015 c 0.413,-0.009 0.859,-0.014 1.339,-0.014 l 1.568,-0.014 1.54,-0.014 c 0.959,0 1.814,0.054 2.563,0.161 0.747,0.108 1.553,0.162 2.417,0.162 1.496,0 2.864,-0.134 4.1,-0.403 1.238,-0.268 2.322,-0.709 3.253,-1.322 0.931,-0.614 1.674,-1.423 2.231,-2.43 0.555,-1.006 0.835,-2.237 0.835,-3.694 0,-1.477 -0.309,-2.76 -0.924,-3.852 -0.615,-1.094 -1.412,-2.004 -2.392,-2.732 -0.981,-0.728 -2.077,-1.274 -3.289,-1.639 -1.211,-0.363 -2.489,-0.546 -3.835,-0.546 -0.73,0 -1.331,0.047 -1.803,0.142 -0.471,0.094 -0.889,0.217 -1.254,0.369 z m 27.004,23.839 2.629,0.014 c 0.91,0.01 1.883,0.015 2.917,0.015 l 3.279,0.014 3.476,0.014 -0.155,-1.918 c -0.048,-0.568 -0.086,-1.127 -0.114,-1.674 -0.028,-0.549 -0.047,-1.101 -0.057,-1.66 l -0.014,-1.818 -1.192,-0.058 c -0.173,1.044 -0.36,1.924 -0.563,2.64 -0.203,0.716 -0.496,1.301 -0.88,1.756 -0.387,0.454 -0.907,0.778 -1.561,0.97 -0.655,0.195 -1.521,0.291 -2.601,0.291 l -3.235,0 0,-22.482 c 0,-0.462 0.038,-0.846 0.114,-1.151 0.077,-0.308 0.248,-0.562 0.516,-0.763 0.269,-0.203 0.674,-0.352 1.217,-0.447 0.545,-0.096 1.284,-0.164 2.22,-0.202 l -0.058,-1.119 -1.363,0.015 c -0.506,0.01 -1.028,0.015 -1.564,0.015 l -1.735,0.013 -1.62,0.016 c -0.594,0 -1.116,-0.005 -1.565,-0.016 -0.45,-0.01 -0.904,-0.013 -1.362,-0.013 -0.459,0 -0.919,-0.005 -1.378,-0.015 l -1.233,-0.015 -0.086,1.06 c 0.883,0.058 1.594,0.143 2.132,0.259 0.54,0.116 0.943,0.306 1.211,0.576 0.27,0.268 0.448,0.629 0.535,1.08 0.086,0.451 0.1328,1.041016 0.128,1.769 l 0,21.42 -3.137,0 c -1.075,0 -1.945,-0.096 -2.608,-0.291 -0.662,-0.192 -1.194,-0.516 -1.597,-0.97 -0.404,-0.455 -0.71,-1.04 -0.921,-1.756 -0.211,-0.716 -0.404,-1.596 -0.576,-2.64 l -1.188,0.058 0,1.818 c 0,0.866 -0.015,1.693 -0.043,2.483 -0.028,0.789 -0.09,1.711 -0.184,2.769 1.188,0 2.337,-0.004 3.449,-0.014 l 3.219,-0.014 c 1.035,0 1.998,-0.005 2.889,-0.015 z m 19.433,-15.674 7.83,0 -3.577,10.783 z m 8.325,-1.71 -8.979,0 -2.245,-5.646 c -0.388,-1.095 -0.584,-1.786 -0.584,-2.073 0,-0.462 0.238,-0.789 0.71,-0.982 0.473,-0.19 1.317,-0.317 2.532,-0.374 l -0.087,-1.119 c -0.71,0 -1.507,0.01 -2.391,0.03 -0.884,0.019 -1.777,0.029 -2.68,0.029 -0.711,0 -1.446,-0.01 -2.205,-0.029 -0.759,-0.02 -1.495,-0.03 -2.205,-0.03 l -0.058,1.06 c 0.747,0.057 1.357,0.148 1.834,0.271 0.477,0.124 0.893,0.343 1.246,0.657 0.354,0.313 0.688,0.76 1.002,1.342 0.316,0.58 0.684,1.356 1.104,2.327 l 8.23,19.537 0.589,1.515 0.531,1.4 2.044,0.176 c 0.211,-0.92 0.438,-1.765 0.678,-2.532 0.24,-0.766 0.465,-1.468 0.677,-2.1 l 6.484,-18.762 c 0.29,-0.838 0.549,-1.496 0.781,-1.972 0.231,-0.475 0.501,-0.833 0.809,-1.071 0.309,-0.238 0.699,-0.405 1.172,-0.5 0.472,-0.095 1.084,-0.172 1.835,-0.229 l -0.086,-1.119 c -0.808,0 -1.699,0.01 -2.671,0.03 -0.97,0.019 -2.014,0.029 -3.131,0.029 -1.078,0 -2.031,-0.01 -2.858,-0.029 -0.826,-0.02 -1.645,-0.03 -2.453,-0.03 l -0.086,1.06 c 1.078,0.076 1.849,0.193 2.312,0.353 0.461,0.161 0.693,0.484 0.693,0.975 -0.031,0.222 -0.091,0.468 -0.181,0.742 -0.09,0.275 -0.172,0.591 -0.247,0.95 z m 20.92279,17.384 2.631,0.014 c 0.911,0.01 1.882,0.015 2.917,0.015 l 3.277,0.014 3.477,0.014 -0.155,-1.918 c -0.049,-0.568 -0.086,-1.127 -0.115,-1.674 -0.027,-0.549 -0.047,-1.101 -0.056,-1.66 -0.008,-0.559 -0.014,-1.164 -0.014,-1.818 l -1.192,-0.058 c -0.173,1.044 -0.361,1.924 -0.563,2.64 -0.202,0.716 -0.496,1.301 -0.882,1.756 -0.385,0.454 -0.904,0.778 -1.559,0.97 -0.656,0.195 -1.523,0.291 -2.6,0.291 l -3.236,0 0,-22.482 c 0,-0.462 0.038,-0.846 0.115,-1.151 0.076,-0.308 0.248,-0.562 0.514,-0.763 0.268,-0.203 0.673,-0.352 1.218,-0.447 0.544,-0.096 1.283,-0.164 2.22,-0.202 l -0.058,-1.119 -1.364,0.015 c -0.506,0.01 -1.027,0.015 -1.563,0.015 l -1.736,0.013 -1.621,0.016 c -0.592,0 -1.113,-0.005 -1.563,-0.016 -0.45,-0.01 -0.904,-0.013 -1.363,-0.013 -0.46,0 -0.918,-0.005 -1.378,-0.015 l -1.233,-0.015 -0.086,1.06 c 0.884,0.058 1.596,0.143 2.135,0.259 0.537,0.116 0.941,0.306 1.21,0.576 0.268,0.268 0.446,0.629 0.533,1.08 0.086,0.451 0.13,1.041 0.13,1.769 l 0,21.42 -3.138,0 c -1.077,0 -1.944,-0.096 -2.607,-0.291 -0.662,-0.192 -1.195,-0.516 -1.599,-0.97 -0.402,-0.455 -0.711,-1.04 -0.922,-1.756 -0.211,-0.716 -0.402,-1.596 -0.576,-2.64 l -1.188,0.058 0,1.818 c 0,0.866 -0.013,1.693 -0.041,2.483 -0.028,0.789 -0.089,1.711 -0.184,2.769 1.188,0 2.338,-0.004 3.449,-0.014 l 3.219,-0.014 c 1.035,0 1.998,-0.005 2.889,-0.015 z M -102.754,36.382 c 0.753,0.058 1.363,0.149 1.826,0.274 0.464,0.123 0.826,0.315 1.087,0.574 0.262,0.258 0.441,0.614 0.537,1.063 0.097,0.449 0.145,1.039 0.145,1.767 l 0,19.223 c 0,0.459 -0.038,0.842 -0.116,1.149 -0.078,0.306 -0.246,0.56 -0.507,0.761 -0.262,0.202 -0.634,0.35 -1.117,0.446 -0.483,0.095 -1.122,0.163 -1.914,0.201 l 0.058,1.117 1.121,-0.014 c 0.443,-0.009 0.912,-0.014 1.411,-0.014 l 1.713,-0.015 1.627,-0.014 c 0.574,0 1.088,0.005 1.539,0.014 l 1.338,0.015 c 0.442,0 0.86,0.005 1.253,0.014 l 0.992,0.014 0.087,-1.059 c -0.748,-0.057 -1.351,-0.148 -1.812,-0.272 -0.46,-0.125 -0.825,-0.316 -1.092,-0.575 -0.27,-0.259 -0.451,-0.613 -0.547,-1.063 -0.096,-0.45 -0.145,-1.03 -0.145,-1.739 l 0,-19.251 c 0,-0.459 0.04,-0.842 0.116,-1.148 0.077,-0.307 0.244,-0.561 0.504,-0.763 0.259,-0.201 0.629,-0.349 1.108,-0.444 0.479,-0.097 1.121,-0.164 1.928,-0.202 l -0.059,-1.119 -1.138,0.015 c -0.45,0.01 -0.934,0.015 -1.453,0.015 l -1.683,0.013 -1.627,0.016 -1.381,-0.016 -1.467,-0.013 c -0.441,0 -0.859,-0.005 -1.253,-0.015 l -0.993,-0.015 z m 27.805,25.575 c -1.052,0 -2.186,-0.207 -3.401,-0.62 -1.213,-0.414 -2.286,-1.103 -3.213,-2.064 -0.928,-0.962 -1.669,-2.209 -2.224,-3.738 -0.555,-1.531 -0.832,-3.392 -0.832,-5.586 0,-2.579 0.315,-4.744 0.946,-6.496 0.632,-1.751 1.445,-3.16 2.441,-4.228 0.993,-1.069 2.107,-1.819 3.341,-2.252 1.235,-0.434 2.33,-0.65 3.287,-0.65 1.051,0 2.186,0.207 3.4,0.62 1.215,0.414 2.286,1.103 3.214,2.065 0.927,0.962 1.669,2.208 2.223,3.738 0.555,1.53 0.832,3.392 0.832,5.586 0,2.578 -0.315,4.743 -0.947,6.495 -0.632,1.751 -1.444,3.161 -2.438,4.23 -0.995,1.067 -2.11,1.818 -3.343,2.251 -1.233,0.432 -2.329,0.649 -3.286,0.649 m 0.173,1.592 c 2.223,0 4.212,-0.332 5.968,-0.994 1.753,-0.663 3.255,-1.61 4.501,-2.839 1.247,-1.23 2.219,-2.714 2.92,-4.452 0.699,-1.739 1.05,-3.684 1.05,-5.835 0,-2.133 -0.346,-4.097 -1.036,-5.894 -0.69,-1.796 -1.658,-3.347 -2.904,-4.654 -1.246,-1.306 -2.743,-2.324 -4.489,-3.054 -1.744,-0.729 -3.748,-1.096 -6.01,-1.096 -2.226,0 -4.21,0.333 -5.954,0.996 -1.746,0.662 -3.247,1.608 -4.503,2.837 -1.255,1.23 -2.234,2.713 -2.934,4.453 -0.699,1.738 -1.05,3.683 -1.05,5.835 0,2.132 0.346,4.097 1.035,5.893 0.691,1.796 1.661,3.348 2.907,4.653 1.246,1.307 2.741,2.327 4.486,3.055 1.746,0.731 3.75,1.096 6.013,1.096 m 40.914,-28.64 c -0.5,0.71 -0.999,1.394 -1.5,2.054 -0.499,0.662 -1.029,1.328 -1.585,1.999 l -15.54,18.046 0,-16.58 c 0,-0.899 0.052,-1.601 0.158,-2.108 0.106,-0.507 0.304,-0.889 0.591,-1.148 0.287,-0.258 0.676,-0.43 1.166,-0.516 0.491,-0.086 1.129,-0.158 1.917,-0.215 l -0.059,-1.119 c -0.612,0 -1.337,0.01 -2.171,0.03 -0.834,0.019 -1.711,0.029 -2.632,0.029 -0.804,0 -1.605,-0.01 -2.4,-0.029 -0.796,-0.02 -1.529,-0.03 -2.2,-0.03 l -0.087,1.06 c 0.769,0.076 1.402,0.169 1.903,0.274 0.498,0.104 0.897,0.32 1.195,0.645 0.298,0.327 0.504,0.814 0.62,1.466 0.114,0.651 0.173,1.551 0.173,2.701 l 0,14.28 c 0,0.805 -0.011,1.456 -0.03,1.954 -0.019,0.498 -0.063,0.905 -0.13,1.222 -0.068,0.315 -0.159,0.579 -0.274,0.789 -0.116,0.211 -0.27,0.432 -0.463,0.662 -0.191,0.248 -0.385,0.459 -0.577,0.631 -0.193,0.173 -0.415,0.316 -0.664,0.432 -0.25,0.114 -0.56,0.201 -0.926,0.258 -0.365,0.058 -0.818,0.106 -1.357,0.144 l 0.057,1.089 1.029,-0.015 c 0.453,-0.009 0.959,-0.014 1.519,-0.014 l 1.997,-0.014 1.941,-0.014 18.092,-21.067 0,15.98 c 0,0.901 -0.052,1.606 -0.157,2.113 -0.103,0.508 -0.3,0.891 -0.586,1.15 -0.286,0.259 -0.677,0.431 -1.172,0.516 -0.496,0.086 -1.133,0.159 -1.915,0.217 l 0.056,1.118 c 0.611,0 1.334,-0.009 2.173,-0.029 0.837,-0.018 1.713,-0.028 2.628,-0.028 0.437,0 0.856,0.004 1.258,0.014 l 1.185,0.029 1.113,0.029 0.929,0.014 0.028,-1.03 c -0.742,-0.076 -1.351,-0.172 -1.828,-0.288 -0.476,-0.114 -0.85,-0.335 -1.127,-0.661 -0.276,-0.326 -0.471,-0.814 -0.586,-1.467 -0.115,-0.652 -0.171,-1.553 -0.171,-2.704 l 0,-21.575 z"
             style="fill:#006b54;fill-opacity:1;fill-rule:evenodd;stroke:none"
             id="path3996"
             inkscape:connector-curvature="0"
             sodipodi:nodetypes="ccccccssccccccccccscccccccccsccccsccccccccccccccccccccsccccccccscccscccscccscccssccscssccscccscscscccccsssccccccccccccsccccsccccccccccccccccscccsccccccccccscccscscccscsccccccscsccccccssccccccccccscccscccsccsccccccccccsccscsccccccccccsccccccscsccsccscccccccccccccsccccsccccccccccccccccccccsccccccccccccccccccsccscsccccccccccsccccccscsccsccsccccccccccssccccccccccccccccsssccccccccccccccccccscccscccsccccccscscccscccsccccccccsscccccsccccccssscccccccccccccscsccccsccccccccscc" /><path
             style="fill:#006b54;fill-opacity:1;fill-rule:evenodd;stroke:none"
             d="m 62.457,82.740004 c 0,-12.261 -2.157,-23.84 -6.11,-34.469 -0.036,2.827 -0.357,5.584 -0.935,8.247 2.269,8.355 3.479,17.147 3.479,26.222 0,55.135996 -44.7,99.830996 -99.841,99.830996 -55.141,0 -101.984,-44.342 -101.984,-99.476996 0,-1.061 -0.238,-4.631 -1.043,-9.279 -0.251,2.942 -0.38,5.918 -0.38,8.925 0,57.104996 46.296,103.396996 103.407,103.396996 57.11,0 103.407,-46.292 103.407,-103.396996"
             id="path4130" /></g><g
           id="g3998"
           transform="translate(49.4961,301.6045)"><path
             d="m 0,0 c 0.427,0.034 0.771,0.085 1.034,0.155 0.262,0.071 0.468,0.18 0.615,0.325 0.148,0.146 0.248,0.346 0.303,0.602 0.056,0.254 0.082,0.587 0.082,0.999 l 0,10.876 c 0,0.259 -0.021,0.477 -0.065,0.649 -0.044,0.174 -0.14,0.317 -0.287,0.432 -0.148,0.113 -0.359,0.197 -0.632,0.252 -0.274,0.053 -0.634,0.092 -1.082,0.113 L 0,15.034 0.635,15.028 1.434,15.019 2.402,15.011 3.321,15.003 4.192,15.011 4.95,15.019 5.658,15.028 6.221,15.034 6.27,14.437 C 5.846,14.403 5.504,14.353 5.244,14.282 4.983,14.212 4.777,14.103 4.625,13.957 4.474,13.812 4.37,13.61 4.316,13.355 4.262,13.102 4.235,12.773 4.235,12.372 l 0,-10.891 C 4.235,1.22 4.257,1.004 4.301,0.831 4.344,0.657 4.438,0.515 4.585,0.399 4.731,0.285 4.94,0.202 5.212,0.148 5.483,0.095 5.847,0.056 6.302,0.034 L 6.27,-0.6 5.626,-0.591 4.804,-0.583 3.852,-0.575 2.932,-0.565 2.15,-0.575 1.319,-0.583 0.611,-0.591 0.049,-0.6 0,0 z m 58.79,-0.833 c -0.283,0.402 -0.565,0.788 -0.849,1.163 -0.282,0.372 -0.581,0.75 -0.896,1.13 l -8.791,10.209 0,-9.379 c 0,-0.51 0.029,-0.907 0.089,-1.193 0.06,-0.286 0.172,-0.503 0.335,-0.649 0.162,-0.146 0.383,-0.244 0.659,-0.293 0.277,-0.048 0.639,-0.089 1.084,-0.121 L 50.389,-0.6 c -0.348,0 -0.757,0.007 -1.229,0.019 -0.472,0.01 -0.968,0.016 -1.488,0.016 -0.456,0 -0.908,-0.006 -1.359,-0.016 C 45.863,-0.593 45.448,-0.6 45.068,-0.6 L 45.02,0 c 0.434,0.045 0.793,0.096 1.076,0.155 0.282,0.061 0.508,0.182 0.676,0.366 0.168,0.184 0.286,0.46 0.351,0.829 0.065,0.368 0.098,0.878 0.098,1.528 l 0,8.079 c 0,0.455 -0.006,0.824 -0.018,1.105 -0.01,0.283 -0.035,0.512 -0.072,0.691 -0.039,0.18 -0.09,0.328 -0.156,0.447 -0.066,0.119 -0.153,0.244 -0.262,0.374 -0.109,0.141 -0.217,0.259 -0.326,0.359 -0.11,0.095 -0.235,0.177 -0.376,0.242 -0.142,0.065 -0.317,0.115 -0.524,0.146 -0.207,0.033 -0.463,0.061 -0.767,0.082 l 0.032,0.616 0.581,-0.008 0.86,-0.008 1.13,-0.009 1.098,-0.007 10.235,-11.92 0,9.042 c 0,0.509 -0.029,0.909 -0.089,1.196 -0.058,0.288 -0.169,0.504 -0.331,0.649 -0.162,0.147 -0.382,0.245 -0.664,0.294 -0.279,0.048 -0.64,0.089 -1.083,0.122 l 0.032,0.633 1.229,-0.017 c 0.474,-0.01 0.97,-0.016 1.486,-0.016 l 0.712,0.009 0.671,0.015 0.631,0.016 0.524,0.009 0.017,-0.582 C 61.37,14.393 61.025,14.339 60.757,14.273 60.487,14.208 60.274,14.084 60.118,13.898 59.962,13.715 59.852,13.438 59.787,13.07 59.723,12.7 59.69,12.19 59.69,11.539 l 0,-12.206 -0.9,-0.166 z m 42.277,4.768 c 0.218,-0.564 0.449,-1.083 0.693,-1.561 0.244,-0.477 0.537,-0.891 0.88,-1.242 0.341,-0.353 0.742,-0.625 1.197,-0.813 0.457,-0.19 0.994,-0.285 1.613,-0.285 0.392,0 0.747,0.065 1.068,0.195 0.32,0.13 0.616,0.327 0.888,0.587 0.271,0.261 0.483,0.567 0.635,0.921 0.152,0.354 0.229,0.742 0.229,1.164 0,0.532 -0.101,0.981 -0.302,1.345 -0.2,0.363 -0.46,0.662 -0.78,0.896 -0.321,0.234 -0.661,0.451 -1.018,0.651 -0.357,0.202 -0.754,0.399 -1.188,0.595 -0.488,0.218 -0.999,0.465 -1.53,0.742 -0.532,0.277 -1.007,0.614 -1.424,1.011 -0.418,0.396 -0.738,0.834 -0.961,1.312 -0.221,0.478 -0.333,1.037 -0.333,1.679 0,0.684 0.138,1.291 0.414,1.816 0.277,0.529 0.651,0.971 1.122,1.33 0.471,0.358 1.038,0.629 1.699,0.815 0.66,0.184 1.343,0.276 2.048,0.276 0.682,0 1.313,-0.052 1.893,-0.153 0.58,-0.104 1.211,-0.242 1.893,-0.417 l -0.081,-0.969 c -0.023,-0.298 -0.036,-0.592 -0.041,-0.879 l -0.017,-0.88 -0.009,-0.97 -0.753,-0.065 c -0.096,1.15 -0.446,2.004 -1.048,2.562 -0.601,0.559 -1.401,0.839 -2.399,0.839 -0.282,0 -0.585,-0.06 -0.91,-0.179 -0.325,-0.12 -0.607,-0.288 -0.846,-0.505 -0.239,-0.218 -0.426,-0.484 -0.561,-0.8 -0.136,-0.313 -0.203,-0.667 -0.203,-1.058 0,-0.521 0.084,-0.958 0.253,-1.312 0.168,-0.354 0.4,-0.639 0.693,-0.855 0.293,-0.217 0.634,-0.415 1.019,-0.594 0.386,-0.18 0.791,-0.362 1.215,-0.545 0.522,-0.23 1.066,-0.504 1.631,-0.824 0.566,-0.322 1.03,-0.662 1.395,-1.028 0.364,-0.363 0.676,-0.796 0.937,-1.296 0.262,-0.499 0.393,-1.081 0.393,-1.745 0,-0.738 -0.153,-1.392 -0.457,-1.963 -0.304,-0.57 -0.707,-1.055 -1.206,-1.451 -0.5,-0.396 -1.095,-0.699 -1.785,-0.905 -0.689,-0.206 -1.377,-0.309 -2.061,-0.309 -0.599,0 -1.218,0.058 -1.858,0.18 -0.641,0.12 -1.331,0.284 -2.07,0.491 -0.074,0.715 -0.164,1.388 -0.27,2.017 -0.106,0.629 -0.25,1.301 -0.43,2.016 l 0.733,0.163 z m 54.577,11.068 1.488,0.008 1.65,0.008 1.854,0.009 1.968,0.006 -0.089,-1.084 c -0.027,-0.321 -0.048,-0.637 -0.064,-0.947 -0.016,-0.311 -0.027,-0.623 -0.032,-0.939 l -0.009,-1.028 -0.674,-0.034 c -0.097,0.591 -0.204,1.089 -0.318,1.493 -0.114,0.406 -0.28,0.736 -0.498,0.994 -0.219,0.257 -0.513,0.442 -0.883,0.55 -0.37,0.108 -0.861,0.164 -1.472,0.164 l -1.83,0 0,-12.719 c 0,-0.26 0.022,-0.478 0.065,-0.652 0.044,-0.175 0.14,-0.317 0.292,-0.431 0.151,-0.115 0.381,-0.199 0.688,-0.253 0.308,-0.053 0.726,-0.092 1.255,-0.114 l -0.031,-0.634 -0.772,0.009 -0.884,0.008 -0.983,0.008 -0.916,0.01 -0.886,-0.01 -0.77,-0.008 -0.779,-0.008 -0.699,-0.009 -0.047,0.6 c 0.5,0.034 0.902,0.083 1.207,0.148 0.304,0.066 0.533,0.173 0.684,0.326 0.153,0.15 0.253,0.355 0.302,0.611 0.049,0.253 0.074,0.588 0.074,1.001 l 0,12.117 -1.776,0 c -0.609,0 -1.1,-0.056 -1.475,-0.164 -0.374,-0.108 -0.676,-0.293 -0.904,-0.55 -0.228,-0.258 -0.401,-0.588 -0.522,-0.994 -0.119,-0.404 -0.227,-0.902 -0.325,-1.493 l -0.672,0.034 0,1.028 c 0,0.49 -0.007,0.958 -0.023,1.404 -0.017,0.447 -0.052,0.97 -0.105,1.566 l 1.952,-0.006 1.821,-0.009 1.634,-0.008 1.504,-0.008 z M 201,0 c 0.426,0.034 0.771,0.085 1.032,0.155 0.263,0.071 0.468,0.18 0.615,0.325 0.148,0.146 0.249,0.346 0.304,0.602 0.055,0.254 0.082,0.587 0.082,0.999 l 0,10.876 c 0,0.259 -0.021,0.477 -0.065,0.649 -0.044,0.174 -0.14,0.317 -0.287,0.432 -0.148,0.113 -0.359,0.197 -0.632,0.252 -0.274,0.053 -0.635,0.092 -1.083,0.113 l 0.032,0.631 0.636,-0.006 0.797,-0.009 0.969,-0.008 0.92,-0.008 0.871,0.008 0.757,0.008 0.709,0.009 0.562,0.006 0.049,-0.597 c -0.423,-0.034 -0.765,-0.084 -1.026,-0.155 -0.26,-0.07 -0.466,-0.179 -0.618,-0.325 -0.151,-0.145 -0.255,-0.347 -0.309,-0.602 -0.054,-0.253 -0.082,-0.582 -0.082,-0.983 l 0,-10.891 c 0,-0.261 0.023,-0.477 0.066,-0.65 0.043,-0.174 0.139,-0.316 0.285,-0.432 0.146,-0.114 0.355,-0.197 0.627,-0.251 0.27,-0.053 0.635,-0.092 1.09,-0.114 l -0.032,-0.634 -0.644,0.009 -0.822,0.008 -0.952,0.008 -0.921,0.01 -0.782,-0.01 -0.83,-0.008 -0.709,-0.008 L 201.048,-0.6 201,0 z m 51.529,15.003 1.489,0.008 1.65,0.008 1.853,0.009 1.968,0.006 -0.089,-1.084 c -0.027,-0.321 -0.047,-0.637 -0.064,-0.947 -0.017,-0.311 -0.026,-0.623 -0.032,-0.939 l -0.008,-1.028 -0.675,-0.034 c -0.098,0.591 -0.203,1.089 -0.318,1.493 -0.114,0.406 -0.281,0.736 -0.498,0.994 -0.219,0.257 -0.513,0.442 -0.883,0.55 -0.37,0.108 -0.86,0.164 -1.471,0.164 l -1.831,0 0,-12.719 c 0,-0.26 0.023,-0.478 0.065,-0.652 0.044,-0.175 0.14,-0.317 0.292,-0.431 0.151,-0.115 0.38,-0.199 0.688,-0.253 0.308,-0.053 0.727,-0.092 1.256,-0.114 l -0.032,-0.634 -0.772,0.009 -0.885,0.008 -0.982,0.008 -0.916,0.01 -0.885,-0.01 -0.771,-0.008 -0.78,-0.008 -0.697,-0.009 -0.049,0.6 c 0.5,0.034 0.903,0.083 1.207,0.148 0.305,0.066 0.534,0.173 0.685,0.326 0.153,0.15 0.253,0.355 0.302,0.611 0.049,0.253 0.074,0.588 0.074,1.001 l 0,12.117 -1.775,0 c -0.61,0 -1.101,-0.056 -1.475,-0.164 -0.375,-0.108 -0.677,-0.293 -0.904,-0.55 -0.229,-0.258 -0.403,-0.588 -0.522,-0.994 -0.12,-0.404 -0.227,-0.902 -0.325,-1.493 l -0.673,0.034 0,1.028 c 0,0.49 -0.008,0.958 -0.023,1.404 -0.017,0.447 -0.051,0.97 -0.105,1.566 l 1.951,-0.006 1.822,-0.009 1.634,-0.008 1.504,-0.008 z M 301.918,4.869 c 0,-0.779 0.123,-1.448 0.369,-2.007 0.244,-0.556 0.583,-1.011 1.02,-1.363 0.435,-0.352 0.92,-0.612 1.453,-0.78 0.533,-0.167 1.034,-0.252 1.502,-0.252 0.588,0 1.148,0.09 1.682,0.268 0.534,0.179 1.007,0.466 1.42,0.862 0.414,0.394 0.732,0.903 0.955,1.526 0.224,0.622 0.335,1.372 0.335,2.25 l 0,6.675 c 0,0.476 -0.035,0.86 -0.106,1.152 -0.069,0.292 -0.201,0.52 -0.392,0.683 -0.191,0.162 -0.443,0.276 -0.76,0.341 -0.316,0.064 -0.742,0.113 -1.276,0.146 l 0.032,0.633 1.375,-0.017 c 0.536,-0.01 1.097,-0.016 1.683,-0.016 0.476,0 0.975,0.009 1.495,0.024 0.52,0.016 0.953,0.025 1.301,0.025 l 0.016,-0.582 c -0.475,-0.044 -0.862,-0.096 -1.16,-0.155 -0.296,-0.06 -0.534,-0.177 -0.713,-0.349 -0.178,-0.174 -0.299,-0.43 -0.364,-0.766 -0.064,-0.337 -0.097,-0.799 -0.097,-1.383 l 0,-6.855 c 0,-1.065 -0.179,-1.965 -0.538,-2.703 -0.358,-0.739 -0.827,-1.344 -1.409,-1.815 -0.58,-0.473 -1.237,-0.815 -1.97,-1.026 -0.733,-0.211 -1.478,-0.317 -2.239,-0.317 -0.749,0 -1.479,0.092 -2.19,0.277 -0.712,0.183 -1.336,0.498 -1.872,0.942 -0.538,0.444 -0.965,0.985 -1.28,1.626 -0.315,0.64 -0.472,1.393 -0.472,2.261 l 0,8.651 c 0,0.261 -0.025,0.483 -0.073,0.667 -0.049,0.185 -0.153,0.339 -0.31,0.462 -0.158,0.127 -0.383,0.221 -0.677,0.286 -0.294,0.066 -0.684,0.108 -1.175,0.13 l 0.034,0.633 0.69,-0.009 0.835,-0.008 0.916,-0.007 0.982,-0.009 0.95,0.009 0.803,0.007 0.77,0.008 0.641,0.009 0.048,-0.6 c -0.463,-0.033 -0.841,-0.087 -1.132,-0.163 -0.292,-0.075 -0.519,-0.194 -0.68,-0.357 -0.162,-0.161 -0.274,-0.375 -0.332,-0.642 -0.059,-0.265 -0.09,-0.597 -0.09,-0.998 l 0,-7.374 z m 56.678,10.134 1.488,0.008 1.65,0.008 1.855,0.009 1.967,0.006 -0.088,-1.084 c -0.027,-0.321 -0.049,-0.637 -0.065,-0.947 -0.016,-0.311 -0.027,-0.623 -0.032,-0.939 l -0.009,-1.028 -0.673,-0.034 c -0.097,0.591 -0.205,1.089 -0.319,1.493 -0.114,0.406 -0.28,0.736 -0.499,0.994 -0.217,0.257 -0.512,0.442 -0.882,0.55 -0.37,0.108 -0.86,0.164 -1.47,0.164 l -1.831,0 0,-12.719 c 0,-0.26 0.021,-0.478 0.064,-0.652 0.044,-0.175 0.141,-0.317 0.292,-0.431 0.151,-0.115 0.381,-0.199 0.688,-0.253 0.308,-0.053 0.727,-0.092 1.256,-0.114 l -0.032,-0.634 -0.77,0.009 -0.885,0.008 -0.983,0.008 -0.916,0.01 -0.884,-0.01 -0.772,-0.008 -0.779,-0.008 L 355.269,-0.6 355.22,0 c 0.5,0.034 0.903,0.083 1.207,0.148 0.304,0.066 0.533,0.173 0.684,0.326 0.153,0.15 0.253,0.355 0.303,0.611 0.048,0.253 0.072,0.588 0.072,1.001 l 0,12.117 -1.774,0 c -0.608,0 -1.101,-0.056 -1.476,-0.164 -0.375,-0.108 -0.675,-0.293 -0.903,-0.55 -0.229,-0.258 -0.402,-0.588 -0.522,-0.994 -0.12,-0.404 -0.228,-0.902 -0.326,-1.493 l -0.672,0.034 0,1.028 c 0,0.49 -0.007,0.958 -0.024,1.404 -0.016,0.447 -0.051,0.97 -0.103,1.566 l 1.951,-0.006 1.821,-0.009 1.635,-0.008 1.503,-0.008 z M 408.252,2.075 c 0,-0.37 0.022,-0.674 0.065,-0.912 0.044,-0.24 0.14,-0.427 0.286,-0.562 0.147,-0.136 0.353,-0.231 0.62,-0.286 0.264,-0.053 0.62,-0.082 1.064,-0.082 l 0.944,0 c 0.63,0 1.144,0.052 1.539,0.156 0.396,0.102 0.73,0.278 1.001,0.522 0.272,0.245 0.513,0.565 0.725,0.955 0.212,0.392 0.442,0.881 0.692,1.469 l 0.701,-0.147 c -0.088,-0.314 -0.168,-0.651 -0.244,-1.007 l -0.212,-1.057 c -0.065,-0.348 -0.119,-0.673 -0.162,-0.976 -0.043,-0.303 -0.07,-0.552 -0.082,-0.748 -2.176,0 -3.933,0.006 -5.272,0.017 l -2.997,0.018 -0.805,-0.01 -0.82,-0.008 -0.82,-0.008 -0.674,-0.009 -0.05,0.6 c 0.497,0.034 0.897,0.085 1.199,0.155 0.302,0.071 0.536,0.18 0.697,0.325 0.162,0.146 0.27,0.346 0.324,0.602 0.053,0.254 0.081,0.587 0.081,0.999 l 0,10.876 c 0,0.259 -0.024,0.477 -0.073,0.649 -0.048,0.174 -0.145,0.317 -0.291,0.432 -0.145,0.113 -0.355,0.197 -0.629,0.252 -0.275,0.053 -0.644,0.092 -1.107,0.113 l 0.047,0.616 0.706,-0.008 0.803,-0.008 0.875,-0.009 0.794,-0.007 2.658,0.026 c 1.351,0.015 3.08,0.024 5.186,0.024 -0.062,-0.55 -0.107,-1.126 -0.138,-1.729 -0.03,-0.604 -0.052,-1.244 -0.062,-1.922 l -0.701,-0.017 c -0.097,0.558 -0.206,1.021 -0.325,1.384 -0.12,0.367 -0.289,0.654 -0.505,0.863 -0.218,0.209 -0.5,0.36 -0.848,0.451 -0.348,0.09 -0.799,0.136 -1.353,0.136 l -2.07,0 c -0.326,0 -0.536,-0.032 -0.627,-0.098 -0.093,-0.065 -0.14,-0.233 -0.14,-0.504 l 0,-5.595 5.254,0.163 0.081,-1.5 c -0.983,0.088 -1.915,0.145 -2.796,0.18 l -2.539,0.08 0,-4.854 z M 23.475,58.342 c -0.077,1.124 -0.33,2.104 -0.762,2.942 -0.431,0.838 -0.991,1.524 -1.682,2.056 -0.689,0.533 -1.495,0.932 -2.415,1.2 -0.921,0.266 -1.888,0.399 -2.904,0.399 -1.707,0 -3.288,-0.293 -4.745,-0.878 C 9.51,63.476 8.303,62.64 7.344,61.555 6.386,60.47 5.672,59.164 5.202,57.638 4.732,56.11 4.498,54.426 4.498,52.583 c 0,-1.844 0.239,-3.576 0.72,-5.198 0.48,-1.622 1.2,-3.034 2.16,-4.234 0.96,-1.201 2.175,-2.142 3.643,-2.824 1.469,-0.681 3.048,-1.022 4.739,-1.022 0.268,0 0.648,0.029 1.137,0.085 0.49,0.058 1.061,0.162 1.714,0.314 0.653,0.153 1.224,0.353 1.714,0.6 0.489,0.248 0.734,0.562 0.734,0.943 l 0,5.585 c 0,0.46 -0.057,0.841 -0.172,1.147 -0.116,0.305 -0.346,0.557 -0.691,0.758 -0.344,0.201 -0.839,0.348 -1.481,0.445 -0.643,0.094 -1.491,0.162 -2.547,0.2 l 0.059,1.119 1.503,-0.015 1.62,-0.014 c 0.553,0 1.088,-0.005 1.604,-0.014 0.516,-0.011 1.117,-0.016 1.805,-0.016 l 1.304,0.016 1.332,0.014 c 0.401,0 0.784,0.006 1.146,0.014 l 0.975,0.015 0.086,-1.061 c -0.552,-0.056 -0.999,-0.142 -1.341,-0.257 -0.343,-0.116 -0.614,-0.306 -0.814,-0.574 -0.199,-0.266 -0.332,-0.626 -0.398,-1.075 -0.067,-0.449 -0.1,-1.026 -0.1,-1.733 l 0,-1.806 c 0,-0.918 0.009,-1.803 0.029,-2.651 0.018,-0.852 0.076,-1.544 0.171,-2.079 -1.552,-0.422 -3.172,-0.795 -4.86,-1.121 -1.686,-0.326 -3.287,-0.49 -4.802,-0.49 -2.378,0 -4.51,0.337 -6.399,1.009 -1.889,0.673 -3.519,1.624 -4.89,2.854 -1.371,1.23 -2.439,2.714 -3.206,4.452 -0.767,1.738 -1.15,3.674 -1.15,5.805 0,2.46 0.435,4.607 1.308,6.442 0.872,1.834 2.067,3.366 3.58,4.596 1.516,1.228 3.29,2.146 5.322,2.751 2.032,0.606 4.286,0.909 6.759,0.909 0.594,0 1.246,-0.03 1.956,-0.086 0.71,-0.058 1.423,-0.139 2.143,-0.244 0.719,-0.105 1.438,-0.224 2.156,-0.358 0.719,-0.134 1.367,-0.277 1.942,-0.429 -0.115,-1.221 -0.178,-2.371 -0.188,-3.45 -0.009,-1.078 -0.014,-2.227 -0.014,-3.448 l -1.331,-0.115 z m 17.208,6.479 c -0.782,-0.057 -1.414,-0.148 -1.9,-0.273 -0.485,-0.125 -0.861,-0.317 -1.128,-0.575 -0.267,-0.259 -0.448,-0.619 -0.543,-1.08 -0.095,-0.461 -0.143,-1.046 -0.143,-1.757 l 0,-18.164 c 0,-0.655 0.039,-1.191 0.115,-1.613 0.078,-0.422 0.246,-0.755 0.506,-0.995 0.261,-0.238 0.626,-0.406 1.098,-0.503 0.472,-0.096 1.102,-0.143 1.892,-0.143 l 1.068,0 c 1.118,0 2.033,0.091 2.746,0.273 0.712,0.183 1.314,0.49 1.804,0.924 0.491,0.434 0.92,0.994 1.286,1.688 0.367,0.692 0.771,1.556 1.214,2.595 l 1.237,-0.259 C 49.781,44.384 49.638,43.79 49.504,43.157 49.369,42.526 49.244,41.902 49.129,41.29 49.014,40.677 48.918,40.102 48.842,39.566 48.765,39.03 48.717,38.589 48.698,38.245 l -4.437,0 c -1.268,0 -2.295,0.004 -3.083,0.014 -0.787,0.011 -1.508,0.015 -2.16,0.015 -0.654,0 -1.22,0.004 -1.701,0.014 l -1.267,0.016 -1.411,0 c -0.52,0 -1.009,-0.005 -1.47,-0.016 -0.461,-0.01 -0.922,-0.014 -1.383,-0.014 -0.461,0 -0.897,-0.004 -1.31,-0.014 l -1.023,-0.015 -0.087,1.06 c 0.781,0.058 1.414,0.149 1.9,0.274 0.485,0.123 0.861,0.315 1.128,0.574 0.266,0.258 0.448,0.614 0.543,1.063 0.094,0.449 0.142,1.039 0.142,1.766 l 0,19.224 c 0,0.459 -0.042,0.842 -0.128,1.148 -0.086,0.307 -0.258,0.561 -0.514,0.762 -0.257,0.201 -0.629,0.35 -1.115,0.446 -0.485,0.095 -1.136,0.163 -1.956,0.201 l 0.086,1.117 1.129,-0.014 c 0.447,-0.01 0.928,-0.014 1.442,-0.014 l 1.672,-0.015 1.586,-0.014 c 0.628,0 1.171,0.005 1.629,0.014 l 1.371,0.015 c 0.458,0 0.891,0.004 1.3,0.014 l 1.016,0.014 0.086,-1.059 z m 25.065,0.059 c -1.052,0 -2.185,-0.207 -3.4,-0.62 -1.214,-0.414 -2.285,-1.103 -3.213,-2.064 -0.928,-0.963 -1.67,-2.209 -2.225,-3.738 -0.555,-1.531 -0.832,-3.393 -0.832,-5.586 0,-2.579 0.316,-4.744 0.947,-6.496 0.632,-1.751 1.445,-3.16 2.44,-4.229 0.994,-1.068 2.108,-1.818 3.343,-2.251 1.233,-0.434 2.329,-0.65 3.285,-0.65 1.052,0 2.186,0.207 3.401,0.62 1.215,0.414 2.285,1.103 3.213,2.065 0.929,0.962 1.669,2.208 2.224,3.738 0.555,1.53 0.833,3.392 0.833,5.586 0,2.578 -0.317,4.743 -0.948,6.495 -0.631,1.751 -1.445,3.161 -2.439,4.229 -0.994,1.068 -2.108,1.819 -3.343,2.251 -1.233,0.433 -2.329,0.65 -3.286,0.65 m 0.173,1.592 c 2.225,0 4.214,-0.332 5.968,-0.994 1.755,-0.664 3.256,-1.61 4.502,-2.839 1.246,-1.23 2.219,-2.714 2.92,-4.452 0.699,-1.739 1.049,-3.684 1.049,-5.835 0,-2.133 -0.344,-4.097 -1.035,-5.894 -0.69,-1.796 -1.659,-3.348 -2.905,-4.654 -1.246,-1.306 -2.742,-2.325 -4.487,-3.054 -1.745,-0.729 -3.749,-1.096 -6.012,-1.096 -2.225,0 -4.209,0.333 -5.954,0.995 -1.745,0.663 -3.246,1.609 -4.502,2.838 -1.256,1.23 -2.235,2.713 -2.934,4.452 -0.7,1.739 -1.051,3.684 -1.051,5.835 0,2.133 0.347,4.098 1.037,5.894 0.69,1.796 1.659,3.348 2.905,4.653 1.246,1.307 2.742,2.326 4.486,3.055 1.746,0.73 3.75,1.096 6.013,1.096 m 24.589,-12.67 1.991,0 c 2.387,0 4.065,0.452 5.038,1.355 0.971,0.904 1.457,2.249 1.457,4.036 0,0.655 -0.092,1.298 -0.273,1.933 -0.184,0.635 -0.512,1.206 -0.983,1.715 -0.471,0.51 -1.062,0.928 -1.775,1.254 -0.712,0.328 -1.732,0.49 -3.06,0.49 -0.615,0 -1.067,-0.043 -1.356,-0.129 -0.289,-0.087 -0.52,-0.212 -0.694,-0.375 -0.172,-0.163 -0.274,-0.365 -0.302,-0.605 -0.03,-0.241 -0.043,-0.515 -0.043,-0.823 l 0,-8.851 z m 0,-11.115 c 0,-0.635 0.033,-1.16 0.1,-1.574 0.068,-0.414 0.231,-0.735 0.489,-0.967 0.258,-0.231 0.589,-0.389 0.993,-0.475 0.402,-0.086 1.025,-0.131 1.87,-0.131 1.88,0 3.395,0.501 4.546,1.502 1.15,1 1.726,2.501 1.726,4.503 0,1.173 -0.202,2.187 -0.604,3.044 -0.402,0.856 -0.931,1.558 -1.582,2.107 -0.652,0.549 -1.448,0.948 -2.389,1.199 -0.939,0.249 -2.022,0.375 -3.251,0.375 l -1.898,0 0,-9.583 z m -7.663,23.193 1.095,-0.014 c 0.423,-0.01 0.866,-0.014 1.328,-0.014 l 1.572,-0.015 1.572,-0.014 c 0.771,0 1.636,0.049 2.598,0.148 0.962,0.098 1.97,0.147 3.029,0.147 1.212,0 2.39,-0.11 3.534,-0.331 1.145,-0.221 2.164,-0.586 3.059,-1.095 0.893,-0.507 1.591,-1.174 2.092,-2 0.5,-0.824 0.75,-1.841 0.75,-3.05 0,-0.997 -0.173,-1.846 -0.518,-2.547 -0.346,-0.7 -0.802,-1.29 -1.367,-1.77 -0.566,-0.48 -1.152,-0.868 -1.755,-1.166 -0.605,-0.297 -1.185,-0.57 -1.741,-0.82 2.206,-0.326 3.889,-1.105 5.051,-2.334 1.163,-1.229 1.745,-2.862 1.745,-4.899 0,-1.48 -0.318,-2.733 -0.952,-3.761 -0.634,-1.029 -1.484,-1.867 -2.55,-2.522 -1.066,-0.653 -2.272,-1.129 -3.616,-1.427 -1.345,-0.297 -2.71,-0.446 -4.091,-0.446 -0.866,0 -1.821,0.059 -2.869,0.176 -1.046,0.119 -2.002,0.178 -2.867,0.178 -0.518,0 -0.994,-0.005 -1.426,-0.016 -0.432,-0.01 -0.87,-0.014 -1.311,-0.014 -0.442,0 -0.864,-0.004 -1.268,-0.014 l -1.066,-0.015 -0.086,1.06 c 0.806,0.058 1.458,0.143 1.957,0.258 0.499,0.116 0.883,0.307 1.152,0.575 0.27,0.269 0.447,0.629 0.534,1.078 0.086,0.449 0.129,1.039 0.129,1.766 l 0,19.224 c 0,0.459 -0.04,0.842 -0.117,1.148 -0.077,0.307 -0.247,0.561 -0.507,0.762 -0.262,0.201 -0.644,0.35 -1.146,0.446 -0.504,0.095 -1.17,0.163 -2.002,0.201 l 0.058,1.117 z m 31.268,-15.732 7.83,0 -3.577,10.784 -4.253,-10.784 z m 8.324,-1.71 -8.977,0 -2.246,-5.645 c -0.39,-1.095 -0.583,-1.786 -0.583,-2.073 0,-0.462 0.236,-0.789 0.709,-0.982 0.472,-0.19 1.316,-0.317 2.532,-0.374 l -0.086,-1.119 c -0.712,0 -1.509,0.01 -2.392,0.029 -0.884,0.02 -1.778,0.03 -2.68,0.03 -0.712,0 -1.446,-0.01 -2.205,-0.03 -0.759,-0.019 -1.493,-0.029 -2.205,-0.029 l -0.058,1.06 c 0.745,0.057 1.356,0.148 1.834,0.271 0.478,0.124 0.893,0.343 1.246,0.656 0.354,0.314 0.688,0.761 1.003,1.343 0.315,0.58 0.683,1.356 1.104,2.326 l 8.229,19.537 0.589,1.516 0.53,1.4 2.046,0.176 c 0.211,-0.921 0.437,-1.765 0.677,-2.532 0.24,-0.767 0.467,-1.468 0.678,-2.101 l 6.483,-18.761 c 0.29,-0.838 0.55,-1.496 0.78,-1.972 0.232,-0.476 0.501,-0.833 0.811,-1.071 0.307,-0.239 0.698,-0.405 1.171,-0.5 0.471,-0.095 1.084,-0.172 1.836,-0.229 l -0.087,-1.119 c -0.809,0 -1.699,0.01 -2.67,0.029 -0.972,0.02 -2.016,0.03 -3.132,0.03 -1.078,0 -2.03,-0.01 -2.858,-0.03 -0.828,-0.019 -1.645,-0.029 -2.454,-0.029 l -0.086,1.06 c 1.079,0.076 1.85,0.193 2.312,0.353 0.463,0.161 0.693,0.484 0.693,0.975 -0.03,0.221 -0.09,0.468 -0.18,0.742 -0.09,0.274 -0.172,0.591 -0.246,0.95 l -2.118,6.113 z m 22.44,16.383 c -0.78,-0.057 -1.414,-0.148 -1.9,-0.273 -0.484,-0.125 -0.86,-0.317 -1.127,-0.575 -0.267,-0.259 -0.448,-0.619 -0.542,-1.08 -0.096,-0.461 -0.144,-1.046 -0.144,-1.757 l 0,-18.164 c 0,-0.655 0.039,-1.191 0.115,-1.613 0.078,-0.422 0.246,-0.755 0.506,-0.995 0.26,-0.238 0.626,-0.406 1.098,-0.503 0.472,-0.096 1.102,-0.143 1.892,-0.143 l 1.07,0 c 1.116,0 2.031,0.091 2.744,0.273 0.713,0.183 1.314,0.49 1.805,0.924 0.491,0.434 0.919,0.994 1.286,1.688 0.365,0.692 0.77,1.556 1.213,2.595 l 1.237,-0.259 c -0.153,-0.555 -0.297,-1.149 -0.432,-1.782 -0.134,-0.631 -0.259,-1.255 -0.374,-1.867 -0.115,-0.613 -0.211,-1.188 -0.287,-1.724 -0.077,-0.536 -0.125,-0.977 -0.144,-1.321 l -4.437,0 c -1.269,0 -2.295,0.004 -3.083,0.014 -0.787,0.011 -1.508,0.015 -2.16,0.015 -0.653,0 -1.22,0.004 -1.7,0.014 l -1.268,0.016 -1.411,0 c -0.52,0 -1.009,-0.005 -1.47,-0.016 -0.461,-0.01 -0.922,-0.014 -1.383,-0.014 -0.461,0 -0.897,-0.004 -1.311,-0.014 l -1.022,-0.015 -0.087,1.06 c 0.782,0.058 1.415,0.149 1.9,0.274 0.484,0.123 0.861,0.315 1.128,0.574 0.266,0.258 0.447,0.614 0.542,1.063 0.096,0.449 0.143,1.039 0.143,1.766 l 0,19.224 c 0,0.459 -0.043,0.842 -0.128,1.148 -0.085,0.307 -0.257,0.561 -0.514,0.762 -0.257,0.201 -0.629,0.35 -1.114,0.446 -0.486,0.095 -1.137,0.163 -1.957,0.201 l 0.085,1.117 1.13,-0.014 c 0.448,-0.01 0.928,-0.014 1.443,-0.014 l 1.672,-0.015 1.586,-0.014 c 0.627,0 1.17,0.005 1.628,0.014 l 1.372,0.015 c 0.457,0 0.89,0.004 1.299,0.014 l 1.016,0.014 0.085,-1.059 z"
             style="fill:#231f20;fill-opacity:1;fill-rule:evenodd;stroke:none"
             id="path4000" /></g></g></g></g></svg>